<?xml version="1.0" encoding="UTF-8"?>
<svg width="37px" height="37px" viewBox="0 0 37 37" version="1.1" xmlns="http://www.w3.org/2000/svg" xmlns:xlink="http://www.w3.org/1999/xlink">
    <title>Premium-icon</title>
    <g id="Premium-icon" stroke="none" stroke-width="1" fill="none" fill-rule="evenodd">
        <g id="Group-4" transform="translate(1, 1)">
            <path d="M0,17.578125 C0,27.2862554 7.86999463,35.15625 17.578125,35.15625 C27.2862554,35.15625 35.15625,27.2862554 35.15625,17.578125 C35.15625,7.86999463 27.2862554,0 17.578125,0 C7.86999463,0 0,7.86999463 0,17.578125 Z" id="Path" fill="#F3E5FC"></path>
            <path d="M18.0016036,9.28989974 L20.5296926,14.2985565 L25.3956797,14.7804836 C25.7309315,14.80869 25.9791468,15.1028428 25.9509405,15.4372906 C25.9388521,15.5815463 25.8759924,15.7169372 25.7736439,15.8184804 L21.7691573,19.7875286 L23.2536138,25.1805988 C23.3406503,25.5085993 23.1464299,25.8446588 22.8184311,25.9325017 C22.6733702,25.9711848 22.5186386,25.9550669 22.3840543,25.8873714 L17.4511781,23.4438883 L12.5255549,25.8833419 C12.2225388,26.0356567 11.8534394,25.9139661 11.7011255,25.6109484 C11.6334304,25.4763634 11.6173125,25.321631 11.6559954,25.1765693 L13.1404519,19.7834991 L9.1327418,15.8152568 C8.89419722,15.5783227 8.89339133,15.1931034 9.12951822,14.9545576 C9.23186674,14.8522085 9.36645101,14.7893485 9.51070601,14.77726 L14.3766931,14.2953329 L16.9007526,9.28989974 C17.0562901,8.98607615 17.429419,8.86519143 17.7340468,9.02153567 C17.8492897,9.08036623 17.9435792,9.17465631 18.0024095,9.28989974 L18.0016036,9.28989974 Z" id="Stroke-1" stroke="#7B22A4" stroke-width="2" stroke-linecap="round" stroke-linejoin="round"></path>
        </g>
    </g>
</svg>