<?xml version="1.0" encoding="utf-8"?>
<!-- Generator: Adobe Illustrator 22.0.1, SVG Export Plug-In . SVG Version: 6.00 Build 0)  -->
<!DOCTYPE svg PUBLIC "-//W3C//DTD SVG 1.1//EN" "http://www.w3.org/Graphics/SVG/1.1/DTD/svg11.dtd">
<svg version="1.1" id="Layer_1" xmlns="http://www.w3.org/2000/svg" xmlns:xlink="http://www.w3.org/1999/xlink" x="0px" y="0px"
	 viewBox="0 0 50.8 50.8" style="enable-background:new 0 0 50.8 50.8;" xml:space="preserve">
<style type="text/css">
	.st0{fill:#D92632;}
	.st1{display:none;fill:#343741;}
	.st2{fill:#FFFFFF;}
	.st3{display:none;}
	.st4{display:inline;}
	.st5{fill:#343741;}
</style>
<g>
	<g>
		<g>
			<circle class="st0" cx="25.4" cy="25.4" r="25.4"/>
			<path class="st1" d="M78.4,13.7v31h-8.6v-31H59V6.3h30.4v7.4C89.4,13.7,78.4,13.7,78.4,13.7z"/>
			<path class="st1" d="M110.2,17.3c-2.3-1.8-5.2-2.7-8.8-2.7c-5,0-9.4,1.4-13.3,4.2l3.7,5.3c1.1-0.8,2.4-1.5,4-2.1s3.1-0.9,4.5-0.9
				c3.3,0,5,1.6,5,4.7V26h-6.2c-3.8,0-6.8,0.8-9,2.3s-3.3,3.8-3.3,6.8s1.1,5.4,3.2,7.3c2.1,1.8,4.8,2.7,7.9,2.7c3,0,4.4-1,4.5-3.1
				l0.1-4.4c-0.8,0.4-1.8,0.7-2.8,0.7c-1.5,0-2.6-0.3-3.4-0.9c-0.8-0.6-1.2-1.4-1.2-2.4c0-2.1,1.6-3.1,4.9-3.1h5.2v12.7h8.3V25.9
				C113.6,22,112.5,19.1,110.2,17.3z"/>
			<path class="st1" d="M215.2,17.3c-2.3-1.8-5.2-2.7-8.8-2.7c-5,0-9.4,1.4-13.3,4.2l3.7,5.3c1.1-0.8,2.4-1.5,4-2.1s3.1-0.9,4.5-0.9
				c3.3,0,5,1.6,5,4.7V26h-6.2c-3.8,0-6.8,0.8-9,2.3s-3.3,3.8-3.3,6.8s1.1,5.4,3.2,7.3c2.1,1.8,4.8,2.7,7.9,2.7c3,0,4.4-1,4.5-3.1
				l0.1-4.4c-0.8,0.4-1.8,0.7-2.8,0.7c-1.5,0-2.6-0.3-3.4-0.9c-0.8-0.6-1.2-1.4-1.2-2.4c0-2.1,1.6-3.1,4.9-3.1h5.2v12.7h8.3V25.9
				C218.7,22,217.5,19.1,215.2,17.3z"/>
			<path class="st1" d="M125.6,15.1l5.1,7.9l5.2-7.9h9.7l-10.2,14.5L146,44.7h-9.8l-5.8-8.1l-5.6,8.1h-9.5l10.3-15.1l-9.8-14.5
				C115.8,15.1,125.6,15.1,125.6,15.1z"/>
			<path class="st1" d="M157.7,14c-0.8,0.7-1.2,1.6-1.2,2.7s0.5,2,1.5,2.7s3.3,1.4,7,2.3s6.5,2.2,8.5,4s3,4.4,3,7.9
				c0,3.4-1.3,6.2-3.9,8.4c-2.6,2.1-6,3.2-10.2,3.2c-6.1,0-11.6-2.3-16.4-6.8l5.1-6.3c4.1,3.6,8,5.4,11.5,5.4c1.6,0,2.8-0.3,3.7-1
				s1.3-1.6,1.3-2.8s-0.5-2.1-1.4-2.8c-1-0.7-2.8-1.4-5.7-2.1c-4.5-1.1-7.7-2.4-9.8-4.2c-2.1-1.7-3.1-4.4-3.1-8s1.3-6.5,3.9-8.4
				c2.6-2,5.9-3,9.8-3c2.6,0,5.1,0.4,7.7,1.3c2.6,0.9,4.8,2.1,6.7,3.7l-4.3,6.3c-3.3-2.5-6.8-3.8-10.3-3.8
				C159.6,12.9,158.5,13.3,157.7,14z"/>
			<path class="st1" d="M188.5,44.7h-8.3V3.9h8.3V44.7z"/>
			<path class="st1" d="M228.2,56.4c-2.9,0-5.6-1.2-8.2-3.5l3.7-6.1c1.4,1.4,2.8,2,4.3,2c0.8,0,1.4-0.4,2-1.1
				c0.5-0.8,0.8-1.5,0.8-2.4s-3.8-10.9-11.4-30.1h8.8l7.2,18.4l7.2-18.4h8.8L237.6,50c-0.8,2-2.1,3.6-3.8,4.7
				C232.2,55.8,230.3,56.4,228.2,56.4z"/>
			<path class="st1" d="M278.3,40.5c-3.3,3.2-7.3,4.7-11.7,4.7s-8.2-1.4-11.1-4.2s-4.4-6.5-4.4-11.1c0-4.7,1.5-8.4,4.5-11.1
				c3-2.8,6.5-4.1,10.6-4.1s7.5,1.2,10.4,3.7c2.8,2.5,4.3,5.8,4.3,10.1v4.4h-21.6c0.3,1.6,1.1,2.9,2.5,4c1.4,1,3,1.5,4.8,1.5
				c2.9,0,5.3-1,7.2-2.9L278.3,40.5z M270.3,22.9c-1.1-1-2.5-1.4-4.2-1.4S263,22,261.6,23s-2.1,2.3-2.4,4h13
				C272.1,25.2,271.5,23.9,270.3,22.9z"/>
			<path class="st1" d="M299.4,22.4c-2.5,0-4.3,0.9-5.5,2.6s-1.8,4-1.8,6.9v12.8h-8.3V15.1h8.3V19c1.1-1.2,2.4-2.2,4-3.1
				c1.6-0.8,3.2-1.3,4.9-1.3l0.1,7.8H299.4z"/>
			<path class="st2" d="M28,10.1c-1.7-0.7-3.6-0.7-5.2,0c-3.8,1.6-10.4,4.7-10.4,6.8V36l10.5,5.2l-0.6-13l-6.1-1.7V22l9.2,0.6
				l9.2-0.6v4.5l-6.1,1.7l-0.6,13L38.4,36V16.9C38.4,14.8,31.8,11.7,28,10.1z"/>
		</g>
	</g>
	<g class="st3">
		<g class="st4">
			<g>
				<path class="st5" d="M310,13.2c-3,0-5.5-2.5-5.5-5.5s2.5-5.5,5.5-5.5s5.5,2.5,5.5,5.5S313.1,13.2,310,13.2z M310,3.4
					c-2.4,0-4.2,1.8-4.2,4.3s1.8,4.3,4.2,4.3c2.4,0,4.2-1.8,4.2-4.3S312.4,3.4,310,3.4z M311,10.6l-1-2.2h-0.6v2.3H308V4.8h2.4
					c1.2,0,2,0.9,2,1.8c0,0.8-0.5,1.3-1.1,1.6l1.2,2.5H311V10.6z M310.2,5.8h-0.9v1.5h0.9c0.5,0,0.8-0.4,0.8-0.8
					C311.1,6.2,310.7,5.8,310.2,5.8z"/>
			</g>
		</g>
	</g>
</g>
</svg>
