<?xml version="1.0" encoding="UTF-8"?>
<svg id="Layer_2" data-name="Layer 2" xmlns="http://www.w3.org/2000/svg" viewBox="0 0 1464.77 137.52">
  <defs>
    <style>
      .cls-1 {
        fill: #343333;
        stroke-width: 0px;
      }
    </style>
  </defs>
  <g id="Layer_1-2" data-name="Layer 1">
    <g>
      <path class="cls-1" d="M994.27,1.31c4.86,0,9.46-.2,14.02.13,1.18.09,2.47,1.65,3.32,2.82,8.92,12.38,17.76,24.82,26.64,37.23.88,1.23,1.85,2.4,3.2,3.55.88-7.13.54-14.26.6-21.36.06-7.23.01-14.46.01-22.07h14.71v70.07c-4.53,0-8.89.13-13.23-.11-.91-.05-1.93-1.33-2.59-2.26-9.76-13.67-19.47-27.37-29.2-41.06-.56-.79-1.16-1.54-1.74-2.31-.27.03-.55.07-.82.1v45.55h-14.91V1.31Z"/>
      <path class="cls-1" d="M1449.58,45.17c5.11,8.84,9.97,17.25,15.1,26.13-1.41.24-2.32.51-3.23.52-3.51.05-7.03-.04-10.54.05-2.13.05-3.33-.81-4.35-2.73-3.48-6.59-7.25-13.02-10.76-19.59-1.12-2.1-2.5-3.1-4.92-2.94-2.38.16-4.78.04-7.68.04v24.9h-14.83V1.46c1.18-.09,2.14-.23,3.1-.23,9.89-.02,19.78-.22,29.65.1,3.76.12,7.74.83,11.16,2.32,9.59,4.18,14.4,15.49,11.79,25.97-1.9,7.65-6.43,12.81-14.49,15.56ZM1423.35,33.41c6.27,0,12.2.28,18.09-.09,4.51-.28,7.96-4.54,8.09-8.99.14-4.6-2.82-9.2-7.3-9.61-6.17-.56-12.43-.14-18.88-.14v18.82Z"/>
      <path class="cls-1" d="M863.5,15.29c-4.26,2.36-8.06,4.46-11.7,6.47-2.99-2.21-5.57-4.65-8.59-6.25-12.14-6.43-27.9,1.45-30.41,14.99-1.44,7.81-.5,15.1,4.7,21.43,7.45,9.06,20.76,10.03,30.4,3.53.72-.48,1.4-1.53,1.48-2.36.2-2.26.07-4.55.07-7.38h-18.58v-11.93c2.17-1.2,28.15-1.64,33.2-.49.09.84.28,1.78.28,2.72.03,7.03.11,14.07-.07,21.1-.04,1.46-.75,3.25-1.77,4.29-8.96,9.19-19.96,12.64-32.63,11.36-11.36-1.16-20.63-6.02-26.89-15.67-10.92-16.84-7.16-43.29,13.63-53.11,13.82-6.52,32.76-5.41,43.39,6.91,1.06,1.23,2.02,2.56,3.47,4.41Z"/>
      <path class="cls-1" d="M616.69,36.49c.12,20.35-13.8,36.51-36.52,36.5-23.18-.01-36.61-16.25-36.64-36.4-.03-20.01,13.22-36.43,36.55-36.49,22.47-.06,36.65,15.71,36.62,36.4ZM601.64,36.67c-.08-1.3-.09-2.51-.24-3.7-1.07-8.29-4.84-14.83-12.83-18.06-7.93-3.2-15.64-2.29-22.23,3.29-7,5.93-8.77,14.03-7.45,22.69,2.72,17.83,19.86,22.67,31.31,16.47,8.15-4.42,11.28-11.82,11.43-20.68Z"/>
      <path class="cls-1" d="M1396.89,36.65c.12,20.47-14.17,36.46-36.66,36.34-23.33-.13-36.56-16.51-36.47-36.56.09-20.98,14.24-36.42,36.69-36.33,23.18.09,36.66,16.63,36.44,36.56ZM1381.86,36.31c-.07-1.03-.1-2.35-.27-3.65-1.14-8.31-5.07-14.75-13.08-17.88-8.11-3.16-15.96-2.05-22.45,3.79-6.55,5.89-8.25,13.83-6.95,22.28,2.76,18,20.09,22.77,31.59,16.36,7.94-4.43,11.06-11.78,11.17-20.91Z"/>
      <path class="cls-1" d="M308.28,1.56h14.77v27.1h33.02V2.43c2.64-1.39,10.34-1.68,14.9-.7v69.72h-14.74v-28.93h-32.99v28.68c-5.19,1.14-9.92.64-14.96.42V1.56Z"/>
      <path class="cls-1" d="M925.59,29.3v12.85h-33.87v16.55h34.13v12.37c-2.25.96-45.03,1.22-49.15.18V1.51h49.21v12.66h-34.15v15.13h33.83Z"/>
      <path class="cls-1" d="M1143.81,1.48h49.26v12.67h-34.15v15.24h33.64v12.64h-33.65v16.79h34.12v12.66h-49.23V1.48Z"/>
      <path class="cls-1" d="M788.01,58.78v12.1c-2.35,1.13-43.54,1.57-49.33.54V1.52h49.22v12.6h-34.11v15.11h33.48v12.9h-33.59v16.65h34.32Z"/>
      <path class="cls-1" d="M435.06,58.63v12.87h-49.6V1.58h49.55v12.72h-34.46v15h33.74v12.91h-33.79v16.41h34.56Z"/>
      <path class="cls-1" d="M1256.68,10.06c-2.89,3.84-5.43,7.21-8.14,10.82-1.3-.91-2.23-1.63-3.23-2.25-6.55-4.03-13.5-6.43-21.28-4.61-3.72.87-5.89,3.26-5.99,6.14-.13,3.54,2.35,5.12,5.15,5.98,5.55,1.71,11.22,3.01,16.79,4.68,2.82.85,5.63,1.89,8.23,3.24,7.02,3.64,10.44,9.54,10.03,17.46-.43,8.23-4.19,14.52-11.66,18.16-8.79,4.29-18.08,4.05-27.39,2.2-5.68-1.13-10.8-3.6-15.36-7.17-1.02-.79-1.89-1.77-3.1-2.93,2.61-3.69,5.11-7.22,7.79-11.01,1.05.76,1.86,1.26,2.58,1.87,6.46,5.43,13.95,7.85,22.29,7.08,2.4-.22,4.96-1.23,6.97-2.59,4.07-2.75,3.85-7.88-.47-10.22-2.94-1.59-6.3-2.45-9.52-3.48-5.42-1.73-11.03-2.95-16.29-5.07-6.89-2.77-10.76-8.22-11.12-15.74-.38-7.97,3.23-14.04,9.89-18.13,7.95-4.88,16.76-5.04,25.54-3.3,4.23.83,8.3,2.74,12.27,4.53,2.03.91,3.71,2.62,6.03,4.32Z"/>
      <path class="cls-1" d="M1063.82,1.52h16.89c6.3,17.41,12.67,34.98,19.03,52.56.28.03.56.06.84.09,1.34-3.59,2.72-7.17,4.01-10.77,4.69-13.1,9.32-26.22,14.08-39.3.39-1.08,1.56-2.63,2.43-2.68,4.89-.26,9.8-.13,15.66-.13-9.21,23.94-18.14,47.16-27.13,70.53-5.95,0-11.54.11-17.12-.11-.95-.04-2.28-1.36-2.68-2.39-7.71-19.8-15.32-39.65-22.94-59.49-.99-2.59-1.93-5.2-3.08-8.31Z"/>
      <path class="cls-1" d="M537.23,17.2c-4.02,2.05-7.88,4.02-12.07,6.16-.64-.67-1.32-1.31-1.91-2.03-5.13-6.32-11.69-9.4-19.76-7.7-8.98,1.89-14.64,7.59-16.75,16.59-2.26,9.64-.26,18.19,7.38,24.78,8.96,7.73,21.98,6.15,29.15-3.22.51-.67,1.07-1.3,1.71-2.07,4.11,2,8.01,3.9,11.85,5.77-1.96,9.28-17.11,18.1-29.6,17.63-20.3-.76-34.64-13.33-36.27-33.58-1.32-16.39,6.95-31.95,23.93-37.45,17.5-5.67,34.91.57,42.35,15.13Z"/>
      <path class="cls-1" d="M1319.71,1.72v12.59h-20.02v57.16h-15.09V14.53h-20.8V2.13c2.32-1.06,50.78-1.46,55.91-.4Z"/>
      <path class="cls-1" d="M262.91,14.41h-20.45V1.58h55.54v12.78h-19.95v57.17h-15.14V14.41Z"/>
      <path class="cls-1" d="M672.6,71.54h-44.51V1.49h14.65v57.06h29.86v12.99Z"/>
      <path class="cls-1" d="M683.43,1.47h14.71v57.11h29.84v12.87h-44.55V1.47Z"/>
      <path class="cls-1" d="M979.88,71.57h-14.5V1.55h14.5v70.02Z"/>
      <g>
        <path class="cls-1" d="M16.23,48.14v55.84c-3.98-1.5-7.43-2.8-11.04-4.16v-56.81c2.54-1.08,5.27-2.29,8.03-3.39,16.3-6.45,32.62-12.86,48.93-19.32,16.1-6.37,32.22-12.72,48.27-19.23,2.46-1,4.53-.68,6.78.21,28.49,11.35,56.98,22.7,85.47,34.03,5.4,2.15,10.82,4.23,16.21,6.38.79.32,1.49.87,2.87,1.71-6.13,2.49-11.47,4.71-16.84,6.83-16.41,6.5-32.82,12.97-49.24,19.44-13.31,5.25-26.61,10.52-39.97,15.65-1.32.51-3.19.46-4.52-.06-15.25-5.9-30.46-11.92-45.66-17.94-15-5.94-29.99-11.93-44.99-17.87-1.17-.46-2.42-.75-4.29-1.32Z"/>
        <path class="cls-1" d="M41.16,65.33c4.91,1.93,9.59,3.75,14.25,5.6,18.79,7.45,37.58,14.93,56.4,22.32.98.39,2.38.4,3.36.01,16.72-6.55,33.41-13.2,50.11-19.82,5.6-2.22,11.2-4.46,16.81-6.65,1.17-.45,2.4-.73,3.98-1.2.09,1.49.21,2.54.22,3.59.01,10.89-.07,21.79.07,32.68.03,2.7-.9,3.97-3.42,4.95-22.23,8.71-44.39,17.61-66.64,26.29-1.63.64-3.95.62-5.58-.02-22.44-8.78-44.8-17.74-67.22-26.56-1.9-.75-2.75-1.63-2.74-3.71.07-11.65.03-23.3.05-34.94,0-.72.19-1.44.35-2.54Z"/>
        <path class="cls-1" d="M5.2,107.81c3.6,1.33,6.75,2.37,9.77,3.7.84.37,1.65,1.51,1.88,2.44,1.48,5.83,2.81,11.69,4.17,17.55.09.4.01.85.01,1.62H0c1.72-8.4,3.4-16.58,5.2-25.3Z"/>
      </g>
      <g>
        <path class="cls-1" d="M293.11,102.01v35.11h-4.11l-21.06-26.18v26.18h-5.02v-35.11h4.11l21.06,26.18v-26.18h5.02Z"/>
        <path class="cls-1" d="M333.58,128.34h-18.66l-3.86,8.78h-5.17l15.9-35.11h4.97l15.95,35.11h-5.27l-3.86-8.78ZM331.82,124.33l-7.57-17.2-7.57,17.2h15.15Z"/>
        <path class="cls-1" d="M384.13,102.01l-15.4,35.11h-4.97l-15.45-35.11h5.42l12.64,28.84,12.74-28.84h5.02Z"/>
        <path class="cls-1" d="M396.17,102.01h5.02v35.11h-5.02v-35.11Z"/>
        <path class="cls-1" d="M443.61,119.36h4.81v13.69c-3.51,2.96-8.38,4.46-13.29,4.46-10.78,0-18.71-7.57-18.71-17.96s7.92-17.96,18.81-17.96c5.57,0,10.28,1.86,13.49,5.42l-3.11,3.11c-2.91-2.81-6.22-4.06-10.18-4.06-8.12,0-13.99,5.67-13.99,13.49s5.87,13.49,13.94,13.49c2.96,0,5.72-.65,8.23-2.26v-11.43Z"/>
        <path class="cls-1" d="M487.94,128.34h-18.66l-3.86,8.78h-5.17l15.9-35.11h4.97l15.95,35.11h-5.27l-3.86-8.78ZM486.19,124.33l-7.57-17.2-7.57,17.2h15.15Z"/>
        <path class="cls-1" d="M515.07,106.37h-12.04v-4.36h29.04v4.36h-12.04v30.74h-4.97v-30.74Z"/>
        <path class="cls-1" d="M545.11,102.01h5.02v35.11h-5.02v-35.11Z"/>
        <path class="cls-1" d="M598.42,102.01v35.11h-4.11l-21.06-26.18v26.18h-5.02v-35.11h4.11l21.06,26.18v-26.18h5.02Z"/>
        <path class="cls-1" d="M640.85,119.36h4.81v13.69c-3.51,2.96-8.38,4.46-13.29,4.46-10.78,0-18.71-7.57-18.71-17.96s7.92-17.96,18.81-17.96c5.57,0,10.28,1.86,13.49,5.42l-3.11,3.11c-2.91-2.81-6.22-4.06-10.18-4.06-8.12,0-13.99,5.67-13.99,13.49s5.87,13.49,13.94,13.49c2.96,0,5.72-.65,8.23-2.26v-11.43Z"/>
        <path class="cls-1" d="M716.43,137.12l-.05-25.58-12.69,21.32h-2.31l-12.69-21.17v25.43h-4.81v-35.11h4.11l14.65,24.68,14.44-24.68h4.11l.05,35.11h-4.81Z"/>
        <path class="cls-1" d="M736.49,119.56c0-10.28,7.92-17.96,18.71-17.96s18.61,7.62,18.61,17.96-7.92,17.96-18.61,17.96-18.71-7.67-18.71-17.96ZM768.78,119.56c0-7.77-5.82-13.49-13.59-13.49s-13.69,5.72-13.69,13.49,5.82,13.49,13.69,13.49,13.59-5.72,13.59-13.49Z"/>
        <path class="cls-1" d="M819.24,102.01v35.11h-4.11l-21.07-26.18v26.18h-5.02v-35.11h4.11l21.06,26.18v-26.18h5.02Z"/>
        <path class="cls-1" d="M862.82,132.75v4.36h-25.48v-35.11h24.78v4.36h-19.76v10.78h17.6v4.26h-17.6v11.33h20.46Z"/>
        <path class="cls-1" d="M891.55,124.98v12.14h-4.97v-12.24l-13.94-22.87h5.37l11.23,18.51,11.28-18.51h4.97l-13.94,22.97Z"/>
        <path class="cls-1" d="M961.56,128.34h-18.66l-3.86,8.78h-5.17l15.9-35.11h4.97l15.95,35.11h-5.27l-3.86-8.78ZM959.81,124.33l-7.57-17.2-7.57,17.2h15.15Z"/>
        <path class="cls-1" d="M1013.67,102.01v35.11h-4.11l-21.06-26.18v26.18h-5.02v-35.11h4.11l21.06,26.18v-26.18h5.02Z"/>
        <path class="cls-1" d="M1031.77,102.01h14.8c11.28,0,18.96,7.12,18.96,17.55s-7.67,17.55-18.96,17.55h-14.8v-35.11ZM1046.27,132.75c8.68,0,14.24-5.32,14.24-13.19s-5.57-13.19-14.24-13.19h-9.48v26.38h9.48Z"/>
        <path class="cls-1" d="M1127.31,132.75v4.36h-25.48v-35.11h24.78v4.36h-19.76v10.78h17.6v4.26h-17.6v11.33h20.46Z"/>
        <path class="cls-1" d="M1143.01,102.01h14.8c11.28,0,18.96,7.12,18.96,17.55s-7.67,17.55-18.96,17.55h-14.8v-35.11ZM1157.5,132.75c8.68,0,14.24-5.32,14.24-13.19s-5.57-13.19-14.24-13.19h-9.48v26.38h9.48Z"/>
        <path class="cls-1" d="M1191.7,121.97v-19.96h5.02v19.76c0,7.77,3.56,11.28,9.88,11.28s9.93-3.51,9.93-11.28v-19.76h4.86v19.96c0,10.18-5.57,15.55-14.85,15.55s-14.85-5.37-14.85-15.55Z"/>
        <path class="cls-1" d="M1236.39,119.56c0-10.38,7.92-17.96,18.61-17.96,5.42,0,10.13,1.86,13.34,5.47l-3.26,3.16c-2.71-2.86-6.02-4.16-9.88-4.16-7.92,0-13.79,5.72-13.79,13.49s5.87,13.49,13.79,13.49c3.86,0,7.17-1.35,9.88-4.21l3.26,3.16c-3.21,3.61-7.92,5.52-13.39,5.52-10.63,0-18.56-7.57-18.56-17.96Z"/>
        <path class="cls-1" d="M1304.59,128.34h-18.66l-3.86,8.78h-5.17l15.9-35.11h4.97l15.95,35.11h-5.27l-3.86-8.78ZM1302.84,124.33l-7.57-17.2-7.57,17.2h15.15Z"/>
        <path class="cls-1" d="M1331.72,106.37h-12.04v-4.36h29.04v4.36h-12.04v30.74h-4.97v-30.74Z"/>
        <path class="cls-1" d="M1361.76,102.01h5.02v35.11h-5.02v-35.11Z"/>
        <path class="cls-1" d="M1382.02,119.56c0-10.28,7.92-17.96,18.71-17.96s18.61,7.62,18.61,17.96-7.92,17.96-18.61,17.96-18.71-7.67-18.71-17.96ZM1414.32,119.56c0-7.77-5.82-13.49-13.59-13.49s-13.69,5.72-13.69,13.49,5.82,13.49,13.69,13.49,13.59-5.72,13.59-13.49Z"/>
        <path class="cls-1" d="M1464.77,102.01v35.11h-4.11l-21.06-26.18v26.18h-5.02v-35.11h4.11l21.06,26.18v-26.18h5.02Z"/>
      </g>
    </g>
  </g>
</svg>