<?xml version="1.0" encoding="UTF-8"?>
<svg width="141px" height="34px" viewBox="0 0 141 34" version="1.1" xmlns="http://www.w3.org/2000/svg" xmlns:xlink="http://www.w3.org/1999/xlink">
    <title>Trustpilot_brandmark_gr-blk_RGB</title>
    <g id="Trustpilot-reviews" stroke="none" stroke-width="1" fill="none" fill-rule="evenodd">
        <g id="Trustpilot-green-1200" transform="translate(-1048.000000, -756.000000)">
            <g id="Trustpilot_brandmark_gr-blk_RGB" transform="translate(1048.076923, 756.000000)">
                <g id="Group-4" fill="#FFFFFF">
                    <path d="M133.441647,16.8256141 L135.565159,16.8256141 L135.565159,13.0657461 L138.380336,13.0657461 L138.380336,16.8256141 L140.923077,16.8256141 L140.923077,18.8874496 L138.380336,18.8874496 L138.380336,25.5825492 C138.380336,25.8736405 138.392776,26.1245265 138.417656,26.3344739 C138.442536,26.5449102 138.49976,26.7225956 138.590572,26.8681413 C138.680141,27.0138091 138.815737,27.1228156 138.997361,27.1956495 C139.178986,27.2684834 139.425298,27.3049004 139.738787,27.3049004 C139.936583,27.3049004 140.133135,27.3009899 140.330932,27.2926799 C140.528728,27.2847366 140.726525,27.256263 140.923077,27.20787 L140.923077,29.3425394 C140.610832,29.3746792 140.306052,29.4069412 140.009979,29.4394476 C139.713907,29.4717096 139.409126,29.4880851 139.096881,29.4880851 C138.355456,29.4880851 137.758335,29.4190395 137.305518,29.2818037 C136.852701,29.144568 136.499404,28.9421972 136.244384,28.6754247 C135.989364,28.4085299 135.816447,28.0732005 135.725635,27.6687034 C135.634823,27.2646951 135.581331,26.8037395 135.565159,26.2860809 L135.565159,18.8874496 L133.441647,18.8874496 L133.441647,16.8256141 Z M126.181649,27.5231578 C126.807382,27.5231578 127.351011,27.3938653 127.811292,27.1350361 C128.272817,26.8765734 128.650994,26.5369669 128.94831,26.1162165 C129.244383,25.695955 129.462083,25.2229011 129.601411,24.6971771 C129.741984,24.1718196 129.811648,23.6339973 129.811648,23.0840767 C129.811648,22.5502872 129.741984,22.0166198 129.601411,21.4829525 C129.462083,20.9494073 129.244383,20.4763534 128.94831,20.063913 C128.650994,19.6515948 128.272817,19.3161432 127.811292,19.0571917 C127.351011,18.7987291 126.807382,18.6691922 126.181649,18.6691922 C125.555916,18.6691922 125.013531,18.7987291 124.552006,19.0571917 C124.091227,19.3161432 123.712677,19.6515948 123.416356,20.063913 C123.120035,20.4763534 122.901712,20.9494073 122.762011,21.4829525 C122.621936,22.0166198 122.552147,22.5502872 122.552147,23.0840767 C122.552147,23.6339973 122.621936,24.1718196 122.762011,24.6971771 C122.901712,25.2229011 123.120035,25.695955 123.416356,26.1162165 C123.712677,26.5369669 124.091227,26.8765734 124.552006,27.1350361 C125.013531,27.3938653 125.555916,27.5231578 126.181649,27.5231578 Z M126.181649,29.7063424 C125.161567,29.7063424 124.251704,29.5403886 123.453427,29.209092 C122.654653,28.8777954 121.979906,28.4207503 121.428565,27.8385678 C120.876725,27.256263 120.456999,26.5611634 120.169261,25.7524135 C119.880901,24.9439081 119.737094,24.0542588 119.737094,23.0840767 C119.737094,22.1300257 119.880901,21.2488085 120.169261,20.4399365 C120.456999,19.6315532 120.876725,18.9359648 121.428565,18.3537822 C121.979906,17.7717219 122.654653,17.3149212 123.453427,16.983258 C124.251704,16.6520836 125.161567,16.4860076 126.181649,16.4860076 C127.202975,16.4860076 128.11234,16.6520836 128.91099,16.983258 C129.708396,17.3149212 130.383889,17.7717219 130.934982,18.3537822 C131.487319,18.9359648 131.906548,19.6315532 132.195156,20.4399365 C132.482521,21.2488085 132.626825,22.1300257 132.626825,23.0840767 C132.626825,24.0542588 132.482521,24.9439081 132.195156,25.7524135 C131.906548,26.5611634 131.487319,27.256263 130.934982,27.8385678 C130.383889,28.4207503 129.708396,28.8777954 128.91099,29.209092 C128.11234,29.5403886 127.202975,29.7063424 126.181649,29.7063424 Z M114.749018,29.3667359 L117.564071,29.3667359 L117.564071,12.0469266 L114.749018,12.0469266 L114.749018,29.3667359 Z M109.418219,29.3667359 L112.233272,29.3667359 L112.233272,16.8256141 L109.418219,16.8256141 L109.418219,29.3667359 Z M109.418219,14.6667481 L112.233272,14.6667481 L112.233272,12.0469266 L109.418219,12.0469266 L109.418219,14.6667481 Z M104.454899,23.1082732 C104.454899,22.5423439 104.38088,21.9924233 104.232595,21.458756 C104.084559,20.9250886 103.862256,20.4521569 103.565934,20.0397165 C103.269613,19.6272761 102.899274,19.2961017 102.454667,19.0450935 C102.010309,18.7945741 101.499895,18.6691922 100.923798,18.6691922 C99.7383879,18.6691922 98.8453186,19.0735672 98.2445899,19.8819504 C97.6434879,20.6909446 97.3431858,21.7661005 97.3431858,23.1082732 C97.3431858,23.738971 97.4210603,24.3253086 97.5778046,24.8669192 C97.7340513,25.4088965 97.9686702,25.8736405 98.2815368,26.2617622 C98.5940301,26.6498839 98.9687237,26.9572284 99.4051197,27.1835513 C99.8411425,27.4102407 100.347327,27.5231578 100.923798,27.5231578 C101.565827,27.5231578 102.109083,27.3938653 102.553441,27.1350361 C102.997923,26.8765734 103.364157,26.5407552 103.652393,26.128437 C103.940255,25.7159966 104.146262,25.2470976 104.269667,24.7213736 C104.393196,24.1960161 104.454899,23.658316 104.454899,23.1082732 Z M94.6269066,16.8256141 L97.2937989,16.8256141 L97.2937989,18.5235244 L97.3431858,18.5235244 C97.7382809,17.7959184 98.2896228,17.2744715 98.9975845,16.9590615 C99.7052975,16.6436515 100.470732,16.4860076 101.294137,16.4860076 C102.298172,16.4860076 103.174696,16.6600269 103.924083,17.0075767 C104.672848,17.3554931 105.294476,17.8323353 105.788345,18.4387144 C106.282214,19.0450935 106.652553,19.7527802 106.899612,20.5611634 C107.146422,21.3700354 107.269952,22.2349994 107.269952,23.1567885 C107.269952,23.9978003 107.158862,24.8146157 106.936683,25.6067457 C106.71438,26.3993645 106.376758,27.0986191 105.92419,27.7051204 C105.471124,28.3114995 104.899381,28.7967738 104.207964,29.1605768 C103.516548,29.5243798 102.701726,29.7063424 101.763375,29.7063424 C101.35161,29.7063424 100.93997,29.6699255 100.528703,29.5970915 C100.116938,29.5243798 99.7219671,29.4069412 99.3434172,29.245509 C98.9644941,29.0839545 98.6149294,28.8777954 98.2938524,28.6269094 C97.9728998,28.3762679 97.7051905,28.0810216 97.4913464,27.7415373 L97.4419595,27.7415373 L97.4419595,34 L94.6269066,34 L94.6269066,16.8256141 Z M85.1695029,16.8256141 L87.2931394,16.8256141 L87.2931394,13.0657461 L90.1081924,13.0657461 L90.1081924,16.8256141 L92.6516796,16.8256141 L92.6516796,18.8874496 L90.1081924,18.8874496 L90.1081924,25.5825492 C90.1081924,25.8736405 90.1206324,26.1245265 90.1452636,26.3344739 C90.1698949,26.5449102 90.2273678,26.7225956 90.31818,26.8681413 C90.4083701,27.0138091 90.5442152,27.1228156 90.7255907,27.1956495 C90.9064687,27.2684834 91.1535275,27.3049004 91.4662697,27.3049004 C91.6639417,27.3049004 91.8614893,27.3009899 92.0590369,27.2926799 C92.2565845,27.2847366 92.454132,27.256263 92.6516796,27.20787 L92.6516796,29.3425394 C92.3386886,29.3746792 92.0344056,29.4069412 91.7379599,29.4394476 C91.4416385,29.4717096 91.1368579,29.4880851 90.8243645,29.4880851 C90.0835611,29.4880851 89.4865644,29.4190395 89.0339963,29.2818037 C88.581055,29.144568 88.2272608,28.9421972 87.9722403,28.6754247 C87.7168466,28.4085299 87.5439303,28.0732005 87.4536157,27.6687034 C87.3630523,27.2646951 87.3093114,26.8037395 87.2931394,26.2860809 L87.2931394,18.8874496 L85.1695029,18.8874496 L85.1695029,16.8256141 Z M75.8848912,25.3399731 C75.9669954,26.1488452 76.2799864,26.7147745 76.8232422,27.0380056 C77.3663736,27.3617255 78.0166137,27.5231578 78.7739623,27.5231578 C79.0370688,27.5231578 79.3377442,27.5031162 79.6753664,27.4625443 C80.0124911,27.422339 80.3297117,27.3454723 80.6260331,27.2320665 C80.92223,27.1191495 81.1650593,26.9530734 81.3545208,26.7348161 C81.5436092,26.5165587 81.629943,26.2295002 81.6137709,25.8736405 C81.5971013,25.5181474 81.4656103,25.2270561 81.2186758,25.0003666 C80.9717413,24.774166 80.6545207,24.5920811 80.2680092,24.4544788 C79.8808756,24.3173653 79.4407476,24.1998045 78.9468787,24.1028962 C78.4530097,24.0058658 77.9506816,23.9007699 77.4405162,23.7874863 C76.9135568,23.6745692 76.4073722,23.5369669 75.9218381,23.3750458 C75.4361796,23.2136136 74.9997835,22.9953562 74.6131476,22.7201515 C74.2261384,22.4453135 73.9175015,22.0936087 73.6871122,21.6649151 C73.4564742,21.236588 73.341404,20.7068312 73.341404,20.0760112 C73.341404,19.3969204 73.5099663,18.8268361 73.8475885,18.3658805 C74.1848376,17.9051693 74.6131476,17.5333007 75.1317722,17.2501528 C75.6503968,16.9673714 76.2262455,16.7691556 76.8601891,16.6558719 C77.4937595,16.5428327 78.0987178,16.4860076 78.6751885,16.4860076 C79.3335146,16.4860076 79.9631042,16.5550532 80.5643305,16.6921667 C81.1650593,16.829769 81.7083151,17.0523036 82.1939737,17.3592814 C82.6793834,17.6667481 83.0830621,18.0669681 83.4040148,18.5599413 C83.7250918,19.0534034 83.9264958,19.6476842 84.0089731,20.342906 L81.0705151,20.342906 C80.9385265,19.6799462 80.6298895,19.235366 80.1444797,19.0087987 C79.6586968,18.7823537 79.1031254,18.6691922 78.477641,18.6691922 C78.2800934,18.6691922 78.0454745,18.6853232 77.7739088,18.7175852 C77.5022187,18.7502139 77.2469494,18.8109495 77.0084742,18.8995478 C76.7696257,18.988635 76.5678485,19.1179274 76.4033914,19.2876696 C76.2386855,19.4575339 76.1564569,19.6799462 76.1564569,19.9547843 C76.1564569,20.2943908 76.2757568,20.5694733 76.5146052,20.779543 C76.7530805,20.989857 77.0658227,21.1638763 77.4529562,21.3011121 C77.8394677,21.4387144 78.2800934,21.5557864 78.7739623,21.6528168 C79.2679557,21.7498472 79.7778722,21.8551876 80.3050804,21.9682268 C80.814997,22.0815104 81.3174496,22.2191128 81.8113185,22.380545 C82.3051875,22.5423439 82.7454399,22.7607235 83.132449,23.0354393 C83.5189606,23.310644 83.8319516,23.658316 84.0708,24.0785775 C84.3091509,24.4993279 84.4288239,25.0166198 84.4288239,25.6310644 C84.4288239,26.3750458 84.2559076,27.0057436 83.9101993,27.5231578 C83.5646155,28.0409385 83.1157794,28.4613223 82.5644376,28.7845533 C82.0127225,29.1082732 81.3995537,29.3425394 80.7248068,29.4880851 C80.0495624,29.6335085 79.3827771,29.7063424 78.7245754,29.7063424 C77.9178399,29.7063424 77.1728069,29.6173775 76.489974,29.4394476 C75.8065191,29.26164 75.2138763,28.9908347 74.7120458,28.6269094 C74.2095932,28.2631064 73.8144981,27.8104607 73.5266359,27.2684834 C73.2384006,26.7267506 73.0860103,26.0839545 73.0697138,25.3399731 L75.8848912,25.3399731 Z M71.0944869,29.3667359 L68.3289452,29.3667359 L68.3289452,27.6201882 L68.2795583,27.6201882 C67.93385,28.250886 67.4190819,28.7565685 66.736249,29.1362581 C66.0529184,29.5160699 65.3572723,29.7063424 64.6495594,29.7063424 C62.970405,29.7063424 61.7562586,29.2980569 61.0072448,28.4813638 C60.2581066,27.6649151 59.8837863,26.4315043 59.8837863,24.781987 L59.8837863,16.8256141 L62.6988392,16.8256141 L62.6988392,24.5152145 C62.6988392,25.6151778 62.9125589,26.3914212 63.3408689,26.8439448 C63.7686813,27.2968349 64.36941,27.5231578 65.1434283,27.5231578 C65.736071,27.5231578 66.22994,27.4344372 66.6250351,27.256263 C67.0201303,27.0785775 67.3412073,26.8401564 67.5880174,26.5407552 C67.8350762,26.2417206 68.0117246,25.8819504 68.1189576,25.4613223 C68.2258174,25.0409385 68.2795583,24.5879262 68.2795583,24.1028962 L68.2795583,16.8256141 L71.0944869,16.8256141 L71.0944869,29.3667359 Z M50.6943407,16.8256141 L53.3364774,16.8256141 L53.3364774,19.2512526 L53.3859887,19.2512526 C53.4680928,18.9116461 53.6285691,18.5804717 53.8674176,18.256874 C54.1058929,17.9335207 54.3941282,17.6382745 54.7317504,17.3715019 C55.0688751,17.1046071 55.4435686,16.8903825 55.8553334,16.7285836 C56.2666006,16.5671514 56.686327,16.4860076 57.114637,16.4860076 C57.4438,16.4860076 57.6702085,16.4943175 57.7937379,16.5103263 C57.9172673,16.5265795 58.0445288,16.5428327 58.1765174,16.5588415 L58.1765174,19.2270561 C57.9789698,19.1947941 57.7771927,19.1664426 57.5714347,19.1421239 C57.3654279,19.1179274 57.1640239,19.1058292 56.9664763,19.1058292 C56.4887794,19.1058292 56.0404409,19.1990712 55.6207145,19.3847 C55.2009881,19.5709398 54.8343806,19.8456556 54.5218872,20.2094586 C54.2088962,20.5733838 53.9619618,21.022119 53.7810838,21.5557864 C53.5997083,22.0894537 53.5093937,22.7042649 53.5093937,23.3993645 L53.5093937,29.3667359 L50.6943407,29.3667359 L50.6943407,16.8256141 Z M37.0391755,12.0469266 L51.3119879,12.0469266 L51.3119879,14.6667481 L45.7065132,14.6667481 L45.7065132,29.3667359 L42.6198945,29.3667359 L42.6198945,14.6667481 L37.0391755,14.6667481 L37.0391755,12.0469266 L37.0391755,12.0469266 Z" id="Fill-1"></path>
                    <polyline id="Fill-3" points="33.7523968 12.0469266 20.8594318 12.0447269 16.8762606 0 12.8934626 12.0433826 0 12.0413051 10.4313331 19.4884517 6.4477887 31.5344006 16.877629 24.0905536 27.3046081 31.5344006 23.3219345 19.4911402 33.7523968 12.0469266"></polyline>
                </g>
                <polyline id="Fill-5" fill="#114728" points="24.2248314 22.2214347 23.3219345 19.4911402 16.877629 24.0905536 24.2248314 22.2214347"></polyline>
            </g>
        </g>
    </g>
</svg>